<svg width="2672" height="2672" viewBox="0 0 2672 2672" fill="none" xmlns="http://www.w3.org/2000/svg">
<path d="M701.398 935.199H2004V2004H701.398V935.199Z" fill="white"/>
<path d="M1603.2 801.602L2070.8 1008.68L2204.4 734.802L1603.2 133.602L1436.2 414.162L1603.2 801.602Z" fill="#1967D2"/>
<path d="M1603.2 734.802V133.602H668.002C554.442 133.602 467.602 220.442 467.602 334.002V2338C467.602 2451.56 554.442 2538.4 668.002 2538.4H2004C2117.56 2538.4 2204.4 2451.56 2204.4 2338V734.802H1603.2ZM1670 1870.4H868.402V1736.8H1670V1870.4ZM1803.6 1536.4H868.402V1402.8H1803.6V1536.4ZM1803.6 1202.4H868.402V1068.8H1803.6V1202.4Z" fill="#4285F4"/>
<circle cx="1346" cy="1469" r="593" stroke="white" stroke-width="134"/>
<rect x="806" y="1402" width="1070" height="134" fill="white"/>
<rect x="886" y="1737" width="921" height="134" fill="white"/>
<rect x="1413" y="906" width="1151" height="134" transform="rotate(90 1413 906)" fill="white"/>
</svg>
